<svg width="75" height="84" viewBox="0 0 75 84" fill="none" xmlns="http://www.w3.org/2000/svg">
<path d="M6.25 28V42.0035H9.375V63H6.25V73.5H56.25L65.625 73.5035V73.5H68.75V63H65.625V42.0035H68.75V28L37.5 7L6.25 28ZM18.75 63V42.0035H25V63H18.75ZM34.375 63V42.0035H40.625V63H34.375ZM56.25 63H50V42.0035H56.25V63ZM43.75 28C43.7498 28.9195 43.5879 29.8299 43.2735 30.6793C42.9592 31.5287 42.4985 32.3005 41.9179 32.9505C41.3372 33.6005 40.6479 34.116 39.8894 34.4677C39.1308 34.8194 38.3178 35.0002 37.4969 35C36.6759 34.9998 35.863 34.8184 35.1046 34.4664C34.3462 34.1143 33.6572 33.5983 33.0768 32.948C32.4964 32.2977 32.0361 31.5257 31.7221 30.6761C31.4082 29.8265 31.2467 28.916 31.2469 27.9965C31.2473 26.1395 31.9063 24.3588 33.079 23.046C34.2517 21.7333 35.842 20.996 37.5 20.9965C39.158 20.997 40.748 21.7351 41.9201 23.0485C43.0922 24.3619 43.7504 26.143 43.75 28Z" fill="#FF9A02"/>
</svg>
