<svg width="68" height="68" viewBox="0 0 68 68" fill="none" xmlns="http://www.w3.org/2000/svg">
<g clip-path="url(#clip0_100_27)">
<path d="M53.8333 56.6667H17C12.7292 56.6692 8.61395 55.0642 5.47264 52.1708C2.33133 49.2774 0.394144 45.3076 0.0463611 41.051C-0.301422 36.7944 0.965677 32.5629 3.59565 29.198C6.22563 25.833 10.0258 23.5813 14.2403 22.8905C16.2158 19.3869 19.086 16.4706 22.5576 14.4396C26.0293 12.4086 29.9779 11.3357 34 11.3305C39.106 11.3118 44.0656 13.036 48.059 16.218C51.9806 19.3286 54.7686 23.6441 55.9923 28.4977C59.522 29.04 62.7167 30.8954 64.9369 33.6925C67.157 36.4896 68.239 40.022 67.966 43.5826C67.6931 47.1433 66.0855 50.4695 63.465 52.8956C60.8445 55.3217 57.4044 56.6686 53.8333 56.6667ZM34 17C30.9824 17.0036 28.02 17.8084 25.4154 19.3322C22.8109 20.856 20.6577 23.0441 19.176 25.6728L17.85 28.05L15.1583 28.4892C12.3569 28.9585 9.83388 30.4627 8.08879 32.7039C6.34371 34.9451 5.50382 37.7598 5.73543 40.5908C5.96704 43.4218 7.25327 46.0627 9.33942 47.9904C11.4256 49.9181 14.1595 50.9922 17 51H53.8333C55.976 51.0022 58.0405 50.1951 59.6136 48.7402C61.1866 47.2853 62.1522 45.2899 62.3169 43.1536C62.4817 41.0172 61.8335 38.8974 60.5021 37.2185C59.1707 35.5396 57.2544 34.4255 55.1367 34.0992L51.408 33.5325L50.4957 29.8718C49.5804 26.1913 47.4584 22.9235 44.4683 20.5903C41.4783 18.2571 37.7926 16.9931 34 17ZM38.1083 45.3333H29.8917V36.8333H22.6667L34 25.5L45.3333 36.8333H38.1083V45.3333Z" fill="#FF9A02"/>
</g>
<defs>
<clipPath id="clip0_100_27">
<rect width="68" height="68" fill="white"/>
</clipPath>
</defs>
</svg>
