<svg width="74" height="74" viewBox="0 0 74 74" fill="none" xmlns="http://www.w3.org/2000/svg">
<path d="M58.5309 27.1056C57.9883 15.6849 48.5532 6.55206 37 6.55206C25.4467 6.55206 16.0117 15.6849 15.4691 27.1056L15.4167 27.3646V46.6354C15.4167 58.5371 25.1014 68.2187 37 68.2187C48.8986 68.2187 58.5833 58.5371 58.5833 46.6354V27.3646L58.5309 27.1056ZM37 54.3437C33.7485 54.3394 30.5667 53.4007 27.8334 51.6394C25.1002 49.8781 22.9308 47.3685 21.5833 44.4092V43.2129C23.5884 45.2719 25.9855 46.9084 28.6334 48.0258C31.2812 49.1433 34.126 49.719 37 49.719C39.874 49.719 42.7188 49.1433 45.3666 48.0258C48.0145 46.9084 50.4116 45.2719 52.4167 43.2129V44.4092C51.0692 47.3685 48.8998 49.8781 46.1666 51.6394C43.4333 53.4007 40.2515 54.3394 37 54.3437ZM37 12.7187C45.5007 12.7187 52.4167 19.6346 52.4167 28.1354C52.4167 36.6361 45.5007 43.5521 37 43.5521C28.4992 43.5521 21.5833 36.6361 21.5833 28.1354C21.5833 19.6346 28.4992 12.7187 37 12.7187ZM37 62.0521C29.9977 62.0521 24.1363 57.3284 22.2678 50.9243C25.9308 54.9111 31.1725 57.4271 37 57.4271C42.8275 57.4271 48.0692 54.9111 51.7322 50.9243C49.8637 57.3284 44.0022 62.0521 37 62.0521Z" fill="#FF9A02"/>
</svg>
