<svg width="33" height="32" viewBox="0 0 33 32" fill="none" xmlns="http://www.w3.org/2000/svg">
<path d="M28.1373 13.3334C28.1373 22.6667 16.1373 30.6667 16.1373 30.6667C16.1373 30.6667 4.13727 22.6667 4.13727 13.3334C4.13727 10.1508 5.40155 7.09853 7.65199 4.84809C9.90242 2.59766 12.9547 1.33337 16.1373 1.33337C19.3199 1.33337 22.3721 2.59766 24.6225 4.84809C26.873 7.09853 28.1373 10.1508 28.1373 13.3334Z" stroke="#333333" stroke-width="2.66667" stroke-linecap="round" stroke-linejoin="round"/>
<path d="M16.1373 17.3334C18.3464 17.3334 20.1373 15.5425 20.1373 13.3334C20.1373 11.1242 18.3464 9.33337 16.1373 9.33337C13.9281 9.33337 12.1373 11.1242 12.1373 13.3334C12.1373 15.5425 13.9281 17.3334 16.1373 17.3334Z" stroke="#333333" stroke-width="2.66667" stroke-linecap="round" stroke-linejoin="round"/>
</svg>
